<?xml version="1.0" standalone="no"?><!DOCTYPE svg PUBLIC "-//W3C//DTD SVG 1.1//EN" "http://www.w3.org/Graphics/SVG/1.1/DTD/svg11.dtd"><svg t="1563961615720" class="icon" viewBox="0 0 1024 1024" version="1.1" xmlns="http://www.w3.org/2000/svg" p-id="7102" xmlns:xlink="http://www.w3.org/1999/xlink" width="200" height="200"><defs><style type="text/css"></style></defs><path d="M257.28 883.2c-3.168 41.6-16.64 136.288-80.64 140.8 27.552-1.248 171.552-11.488 228.512-88.96a531.2 531.2 0 0 0 106.88 10.208c282.88 0 512-211.136 512-472.256S794.88 0 512 0 0 211.872 0 472.992C0 648.32 103.68 801.248 257.28 883.2zM192 448c0-35.2 28.832-64 64-64 35.2 0 64 28.8 64 64s-28.8 64-64 64c-35.168 0-64-28.8-64-64z m256 0c0-35.2 28.832-64 64-64 35.2 0 64 28.8 64 64s-28.8 64-64 64c-35.168 0-64-28.8-64-64z m256 0c0-35.2 28.8-64 64-64s64 28.8 64 64-28.8 64-64 64-64-28.8-64-64z" fill="#aea389" p-id="7103"></path></svg>