<?xml version="1.0" standalone="no"?><!DOCTYPE svg PUBLIC "-//W3C//DTD SVG 1.1//EN" "http://www.w3.org/Graphics/SVG/1.1/DTD/svg11.dtd"><svg t="1565407572304" class="icon" viewBox="0 0 1135 1024" version="1.1" xmlns="http://www.w3.org/2000/svg" p-id="1703" xmlns:xlink="http://www.w3.org/1999/xlink" width="221.6796875" height="200"><defs><style type="text/css"></style></defs><path d="M58.185997 1021.648422c45.606008-13.346715 230.75618-67.784273 230.75618-67.784272L27.886115 987.827279s-15.362921 47.139461 30.299882 33.821143zM566.866215 0C254.240718 0 0 228.683179 0 509.958095c0 97.232237 30.299882 191.283981 87.974729 272.897721L27.886115 987.770485l261.056062-34.019924a615.823101 615.823101 0 0 0 277.924038 65.966847c312.625496 0 566.866215-228.739974 566.866215-509.816108C1133.73243 228.683179 879.491711 0 566.866215 0zM320.037183 585.154054a73.151356 73.151356 0 1 1 0-146.302712 73.151356 73.151356 0 0 1 0 146.302712z m246.857429 0a73.151356 73.151356 0 1 1 0-146.302712 73.151356 73.151356 0 0 1 0 146.302712z m246.857429 0a73.151356 73.151356 0 1 1 0-146.302712 73.151356 73.151356 0 0 1 0 146.302712z" p-id="1704" fill="#B0BEC5"></path></svg>