<?xml version="1.0" standalone="no"?><!DOCTYPE svg PUBLIC "-//W3C//DTD SVG 1.1//EN" "http://www.w3.org/Graphics/SVG/1.1/DTD/svg11.dtd"><svg t="1565407653792" class="icon" viewBox="0 0 1333 1024" version="1.1" xmlns="http://www.w3.org/2000/svg" p-id="3397" xmlns:xlink="http://www.w3.org/1999/xlink" width="260.3515625" height="200"><defs><style type="text/css"></style></defs><path d="M386.70647239 258.45626533L589.4437551 105.68796523a204.13306494 204.13306494 0 0 1 193.45533487-27.14795244l322.49534766 122.20068164a180.82351143 180.82351143 0 0 0 65.11321318 11.58498809h53.31885908a27.9156331 27.9156331 0 0 1 28.40415557 27.07816376v392.70316378a28.82289112 28.82289112 0 0 1-28.40415557 27.91563223h-69.78908232a44.45564502 44.45564502 0 0 0-27.217742 9.49131562l-15.91191034 13.53908144a9.63089297 9.63089297 0 0 1-13.12034766-1.18641445l-375.81420586-453.62903203a30.98635224 30.98635224 0 0 0-39.1516752-6.97890761L511.27998382 316.31141445a130.43579414 130.43579414 0 0 1-112.56978955 5.79249404 38.87251875 38.87251875 0 0 1-20.09925528-50.5272955 17.30769258 17.30769258 0 0 1 8.16532207-13.12034766z" p-id="3398" fill="#B0BEC5"></path><path d="M121.15901585 659.46433027h60.43734492l42.99007412-51.71370996a109.49906953 109.49906953 0 0 1 152.90787833-13.95781611 111.66253067 111.66253067 0 0 1 35.52264316 54.01674932 106.84708418 106.84708418 0 0 1 75.65136416 73.97642637 104.68362305 104.68362305 0 0 1 62.81017383 49.4106706 109.9178042 109.9178042 0 0 1 60.43734492 30.56761758 111.10421865 111.10421865 0 0 1 15.42338701 133.9950375l-5.93207139 10.60794052v1.18641358a62.81017383 62.81017383 0 0 0 86.53846113-15.28380879 60.15818847 60.15818847 0 0 0 9.49131563-47.03784082v-1.18641446h1.18641445l4.81544648 4.67586827a64.76426807 64.76426807 0 0 0 80.39702198 8.16532295 61.62375938 61.62375938 0 0 0 24.91470263-62.32165049v-1.1166249h1.18641446l4.81544648 4.67586826a64.76426807 64.76426807 0 0 0 80.74596797 8.0955334 62.11228271 62.11228271 0 0 0 26.10111622-62.32165049v-1.04683623h1.18641445l4.81544648 4.67586914a63.50806494 63.50806494 0 0 0 75.86073193 9.49131475 61.20502471 61.20502471 0 0 0 21.42524795-84.65415645 75.65136503 75.65136503 0 0 0-6.97890761-9.49131475l-37.89547208-45.85142724-307.07195976-370.30086826a11.0266752 11.0266752 0 0 0-13.12034766-2.30303936L532.84480999 365.58250596a185.91811435 185.91811435 0 0 1-154.72239434 11.72456631 99.4494419 99.4494419 0 0 1-60.43734492-58.83219669 102.72952881 102.72952881 0 0 1 10.60793965-83.74689755 13.95781612 13.95781612 0 0 0-6.00186093-18.77326348 15.35359834 15.35359834 0 0 0-6.97890763-1.18641445H115.22694359A27.9156331 27.9156331 0 0 0 86.82278714 241.84646386v391.51674932a39.64019854 39.64019854 0 0 0 34.40601738 25.7521711z" p-id="3399" fill="#B0BEC5"></path><path d="M334.57402776 631.06017383a53.6678042 53.6678042 0 0 0-68.74224521 13.95781611l-41.24534766 50.87624063a51.57413174 51.57413174 0 0 0 6.9789085 72.85980146h1.18641445l6.00186094 4.67586914a54.71464042 54.71464042 0 0 0 58.13430468 4.67586826c1.18641445-1.18641445 2.30303935 0 3.48945469 1.18641445v2.30303937a51.92307685 51.92307685 0 0 0 18.91284083 50.5272955l4.81544648 3.48945381a55.06358555 55.06358555 0 0 0 56.94789111 5.79249405 2.23325068 2.23325068 0 0 1 3.48945381 1.18641445v1.18641445a53.3188582 53.3188582 0 0 0 20.09925615 47.03784082l3.48945381 2.30304023a50.31792773 50.31792773 0 0 0 56.94789112 4.67586826 2.23325068 2.23325068 0 0 1 3.4894538 1.18641446v1.18641445a53.45843643 53.45843643 0 0 0 20.09925528 32.94044648l2.30304023 1.18641446a53.17927998 53.17927998 0 0 0 74.74410615-9.49131563 22.19292773 22.19292773 0 0 1 4.81544737-5.79249316l6.97890761-12.98076943a53.17927998 53.17927998 0 0 0-9.49131474-66.99751875 55.06358555 55.06358555 0 0 0-58.13430557-9.49131475c-1.18641445 0-1.18641445 0-2.30303935-1.18641446v-1.18641445a54.22611622 54.22611622 0 0 0-49.8294044-55.20316376 68.53287832 68.53287832 0 0 0-21.42524795 3.4894538c-8.30490117 1.18641445-6.00186094-5.79249404-6.00186182-5.79249404a52.2022333 52.2022333 0 0 0-28.40415556-68.18393233 55.06358555 55.06358555 0 0 0-45.01395791 2.30303937c-5.93207227 1.18641445-4.81544648-4.67586826-4.81544736-4.67586827a47.52636503 47.52636503 0 0 0-17.6566377-67.90477676z" p-id="3400" fill="#B0BEC5"></path></svg>