<?xml version="1.0" standalone="no"?><!DOCTYPE svg PUBLIC "-//W3C//DTD SVG 1.1//EN" "http://www.w3.org/Graphics/SVG/1.1/DTD/svg11.dtd"><svg t="1565440240027" class="icon" viewBox="0 0 1024 1024" version="1.1" xmlns="http://www.w3.org/2000/svg" p-id="5326" xmlns:xlink="http://www.w3.org/1999/xlink" width="200" height="200"><defs><style type="text/css"></style></defs><path d="M258.143 272.666h113.743v84.069H258.143v-84.069z m169.787 0h113.743v84.069H427.93v-84.069zM258.143 414.43h113.743v84.068H258.143V414.43z m169.787 0h113.743v84.068H427.93V414.43z m281.88 0h56.047v84.068h-56.048V414.43z m0 140.115h56.047v84.069h-56.048v-84.069z m-451.667 0h113.743v84.069H258.143v-84.069z m169.787 0h113.743v84.069H427.93v-84.069zM879.6 810.052V300.686H653.765V130.901H144.4v677.503h-28.022v56.042h791.24v-56.042H879.6v1.648z m-679.152 0V186.948h395.623v621.455H200.448v1.65z m453.318 0V356.734h169.786v451.669H653.766v1.65z m0 0" p-id="5327" fill="#FF5252"></path></svg>