<?xml version="1.0" standalone="no"?><!DOCTYPE svg PUBLIC "-//W3C//DTD SVG 1.1//EN" "http://www.w3.org/Graphics/SVG/1.1/DTD/svg11.dtd"><svg t="1563778555435" class="icon" viewBox="0 0 1024 1024" version="1.1" xmlns="http://www.w3.org/2000/svg" p-id="3027" xmlns:xlink="http://www.w3.org/1999/xlink" width="200" height="200"><defs><style type="text/css"></style></defs><path d="M978.121159111111 336.3780835555555c-0.003640888888888889-0.08859496296296296-0.006068148148148147-0.17718992592592592-0.010922666666666666-0.2645712592592593a30.750947555555555 30.750947555555555 0 0 0-0.47210192592592587-4.082650074074073l-0.004854518518518519-0.02912711111111111a30.72910222222222 30.72910222222222 0 0 0-5.0159312592592595-12.012506074074073L813.4643863703704 91.79894518518518a30.858960592592595 30.858960592592595 0 0 0-25.267768888888888-13.175163259259259H236.07402192592593a30.858960592592595 30.858960592592595 0 0 0-25.267768888888888 13.175163259259259L51.62294992592598 319.9868017777777a30.737597629629633 30.737597629629633 0 0 0-5.0159312592592595 12.012506074074073l-0.006068148148148147 0.02912711111111111a30.571330370370372 30.571330370370372 0 0 0-0.4708882962962963 4.082650074074073l-0.010922666666666666 0.2645712592592593c-0.02427259259259259 0.6031739259259259-0.03155437037037037 1.2075614814814812-0.019418074074074077 1.809521777777778l0.0012136296296296298 0.20146251851851854c0.016990814814814813 0.6505054814814815 0.05461333333333333 1.2997973333333332 0.11286755555555555 1.9466619259259261l0.032768 0.3131164444444445c0.05461333333333333 0.5509878518518518 0.12500385185185184 1.0983348148148149 0.20874429629629626 1.645681777777778 0.019418074074074077 0.12379022222222222 0.03640888888888889 0.24879407407407406 0.05704059259259259 0.37258429629629636a30.554339555555554 30.554339555555554 0 0 0 0.3847205925925926 1.9466619259259261 32.025258666666666 32.025258666666666 0 0 0 0.5849694814814814 2.1408426666666664 30.69512059259259 30.69512059259259 0 0 0 5.200402962962963 9.917781333333334l434.83257362962956 576.7422862222222c5.835131259259259 7.730820740740741 14.949489777777776 12.272222814814816 24.605127111111113 12.272222814814816s18.76999585185185-4.542615703703704 24.605127111111113-12.272222814814816l434.83257362962956-576.7422862222222a30.719393185185186 30.719393185185186 0 0 0 5.200402962962963-9.917781333333334l0.07767229629629631-0.2548622222222222c0.18689896296296296-0.6238056296296296 0.36044799999999994-1.251252148148148 0.5072971851851852-1.8859804444444441l0.006068148148148147-0.02427259259259259c0.14806281481481479-0.6359419259259259 0.271853037037037-1.277952 0.37865244444444446-1.9223893333333333 0.020631703703703704-0.12379022222222222 0.03762251851851852-0.24879407407407406 0.05704059259259259-0.37258429629629636 0.08374044444444445-0.5461333333333334 0.15413096296296297-1.094693925925926 0.20874429629629626-1.645681777777778l0.032768-0.3131164444444445c0.05704059259259259-0.6468645925925925 0.09587674074074075-1.2961564444444444 0.11286755555555555-1.9466619259259261l0.0012136296296296298-0.20146251851851854c0.012136296296296294-0.6007466666666667 0.004854518518518519-1.2039205925925927-0.019418074074074077-1.8070945185185185z m-627.4113232592592-116.55820325925924l-100.61839170370371 144.2641540740741c-7.490522074074074 10.738194962962964-19.461764740740744 16.48351762962963-31.61383822222222 16.48351762962963-7.610671407407407 0-15.280810666666666-2.256137481481481-21.98854162962963-6.918902518518519-17.445925925925923-12.18241422222222-21.71790222222222-36.15645392592592-9.56582874074074-53.60237985185185l100.61839170370371-144.2641540740741c12.212754962962965-17.445925925925923 36.186794666666664-21.628093629629632 53.60237985185185-9.56582874074074 17.447139555555555 12.18362785185185 21.71911585185185 36.157667555555555 9.56582874074074 53.603593481481475z" p-id="3028" fill="#ea650b"></path></svg>