<?xml version="1.0" standalone="no"?><!DOCTYPE svg PUBLIC "-//W3C//DTD SVG 1.1//EN" "http://www.w3.org/Graphics/SVG/1.1/DTD/svg11.dtd"><svg t="1563710066961" class="icon" viewBox="0 0 1024 1024" version="1.1" xmlns="http://www.w3.org/2000/svg" p-id="1898" xmlns:xlink="http://www.w3.org/1999/xlink" width="200" height="200"><defs><style type="text/css"></style></defs><path d="M855.09 720.28l-195.15-90.34a15.54 15.54 0 0 0-6.21-1.43L565.79 627c-6.56-1.53-42.81-12.16-51.56-61.37a14.18 14.18 0 0 0-0.44-1.84C512.29 559 476.57 444.51 410.41 368c-9.79-13.95-130.9-186.34-153.94-212.85a15.45 15.45 0 0 0-18.28-3.79c-1.54 0.74-153.95 75.72-121.72 243.33a15.42 15.42 0 0 0 2 5.16c1.56 2.65 76.94 132.83 70 419.63a15.41 15.41 0 0 0 15.4 15.79H248a15.41 15.41 0 0 0 15.41-15.41V511c5-3.9 13.41-8.77 21.05-8.29 6.6 0.51 13 5.27 19 14.15 0.27 0.41 0.68 0.93 1 1.32S347 571.15 408.9 796.69c1 2.9 25 71.39 112.3 77.42h127.66a15.19 15.19 0 0 0 2.74-0.24l199.76-36.12a14.74 14.74 0 0 0 2-0.5c9.34-3 56-19.73 58.54-53.56 1.7-22.86-16.76-43.55-56.81-63.41z m-10.29 87.34l-197.32 35.67H522.27c-65.2-4.53-83.45-54.44-83.91-55.63C377.68 566.53 334.95 507 328.65 499c-14.3-20.74-30.57-26.14-41.75-27-26.88-1.82-47.83 19.2-50.11 21.64a15.36 15.36 0 0 0-4.15 10.52v300.31h-13c3.67-254.7-55.09-383.2-72.93-415.85C123.56 267.56 209.89 203.71 241 185c35.39 45.67 143.5 199.67 144.69 201.36a14.28 14.28 0 0 0 1 1.26c59.34 68.24 94.11 174 97.44 184.44 13.69 74.07 74.87 85.1 77.48 85.53a16.46 16.46 0 0 0 2.28 0.21l86.11 1.47 191.82 88.78c29.79 14.79 39.83 27.21 39.39 33.33-0.73 9.31-21.64 21.22-36.41 26.24z" fill="#4db1c4" p-id="1899"></path></svg>