<?xml version="1.0" standalone="no"?><!DOCTYPE svg PUBLIC "-//W3C//DTD SVG 1.1//EN" "http://www.w3.org/Graphics/SVG/1.1/DTD/svg11.dtd"><svg t="1563776664784" class="icon" viewBox="0 0 1024 1024" version="1.1" xmlns="http://www.w3.org/2000/svg" p-id="2587" xmlns:xlink="http://www.w3.org/1999/xlink" width="200" height="200"><defs><style type="text/css"></style></defs><path d="M512 1024C228.894118 1024 0 795.105882 0 512S228.894118 0 512 0 1024 228.894118 1024 512 795.105882 1024 512 1024z m0-66.258824c246.964706 0 445.741176-198.776471 445.741176-445.741176s-198.776471-445.741176-445.741176-445.741176-445.741176 198.776471-445.741176 445.741176 198.776471 445.741176 445.741176 445.741176zM469.835294 337.317647L391.529412 512H481.882353c6.023529 0 12.047059 6.023529 12.047059 12.047059v6.023529l-24.094118 108.42353 144.564706-168.658824H542.117647c0-6.023529-6.023529-6.023529-6.023529-12.047059v-6.023529l54.211764-114.447059h-120.470588z m78.305882 66.258824s6.023529 0 0 0z m0 0z m0 0h0z m-6.023529 0c-6.023529 0-6.023529 0 0 0z m216.847059 0l-409.6 469.835294L421.647059 578.258824H301.176471l138.541176-307.2h259.011765L656.564706 361.411765l-18.070588 36.141176 120.470588 6.02353z" p-id="2588" fill="#ea650b"></path></svg>