<?xml version="1.0" standalone="no"?><!DOCTYPE svg PUBLIC "-//W3C//DTD SVG 1.1//EN" "http://www.w3.org/Graphics/SVG/1.1/DTD/svg11.dtd"><svg t="1563778781649" class="icon" viewBox="0 0 1024 1024" version="1.1" xmlns="http://www.w3.org/2000/svg" p-id="5775" xmlns:xlink="http://www.w3.org/1999/xlink" width="200" height="200"><defs><style type="text/css"></style></defs><path d="M32.049995 356.01773844a64.643115 64.643115 0 0 1 18.84799219-46.99499438 61.49345062 61.49345062 0 0 1 45.39516468-19.19795531h64.24315782v299.96805094H96.29315187a61.24347656 61.24347656 0 0 1-45.39516468-19.19795532 64.59312 64.59312 0 0 1-18.84799219-46.99499531zM746.12393844 80.69706312q43.84533-43.74534094 79.5415275-47.99488781a78.34165594 78.34165594 0 0 1 63.24326437 19.74789657q27.647055 24.04743844 46.89500532 70.4424975a579.93823031 579.93823031 0 0 1 31.59663468 103.48897687 1078.58511937 1078.58511937 0 0 1 18.39804 119.53726781q6.14934469 62.34336 6.14934563 118.9373325a844.31007187 844.31007187 0 0 1-7.69918031 113.13794907 695.52591938 695.52591938 0 0 1-22.29762469 106.18869 466.80028125 466.80028125 0 0 1-34.99627313 86.94073968q-19.99786969 37.44601125-44.34527625 55.49409a64.99307719 64.99307719 0 0 1-52.54440375 12.84863157q-28.09700719-5.39942531-58.69374843-41.645565a227.47577156 227.47577156 0 0 0-79.99148063-60.29357813 677.52783656 677.52783656 0 0 0-109.98828469-40.54568156 1151.87731313 1151.87731313 0 0 0-120.88712437-26.64716156c-40.79565469-6.64929187-78.19167187-12.84863156-112.18805063-18.19806188s-62.39335406-10.49888156-84.99094781-15.49834875-35.49621938-11.04882281-38.29592063-18.09807281V284.47535844c2.74970719-9.99893531 13.44856781-18.09807281 32.14657594-24.54738469A559.14044531 559.14044531 0 0 1 328.36843344 242.02988q43.39537781-8.54908969 97.98956343-18.64801406a973.99625906 973.99625906 0 0 0 111.18815719-27.79703906 732.27200531 732.27200531 0 0 0 110.68821094-44.9952075 392.20822594 392.20822594 0 0 0 97.93956844-69.99254532M378.86305531 734.82739156q4.99946719 12.79863656 12.24869532 27.69705 7.39921219 16.39825313 16.29826406 32.04658688c6.79927594 12.04871625 14.9984025 25.24731094 24.49739062 39.49579312 11.598765 17.04818437 23.29751812 34.99627219 34.99627313 53.79427032a323.31556312 323.31556312 0 0 1 26.99712469 51.24454218c6.34932375 15.39835969 8.0991375 27.84703406 5.84937656 37.84596844s-12.09871125 14.9984025-29.09690063 14.9984025H412.50947187a88.8905325 88.8905325 0 0 1-37.74597937-8.0491425 110.88818906 110.88818906 0 0 1-33.19646438-24.49739062 304.56756 304.56756 0 0 1-32.64652312-42.19550532q-19.29794438-29.69683687-36.24613969-60.84352031a351.56255531 351.56255531 0 0 1-32.64652219-70.99243781 387.30874781 387.30874781 0 0 1-12.24869531-50.69460094 101.98913719 101.98913719 0 0 1 0-40.54568156 128.58630469 128.58630469 0 0 1 19.44792844 4.29954187c6.09935063 1.29986156 13.54855687 3.09967031 22.44760875 5.29943625s18.99797625 4.19955281 30.54674625 6.34932375 21.9476625 5.49941438 31.1466825 7.9991475a437.50340156 437.50340156 0 0 1 47.4449475 16.69822125" fill="#ea650b" p-id="5776"></path></svg>