<?xml version="1.0" standalone="no"?><!DOCTYPE svg PUBLIC "-//W3C//DTD SVG 1.1//EN" "http://www.w3.org/Graphics/SVG/1.1/DTD/svg11.dtd"><svg t="1564639907174" class="icon" viewBox="0 0 1246 1024" version="1.1" xmlns="http://www.w3.org/2000/svg" p-id="1725" xmlns:xlink="http://www.w3.org/1999/xlink" width="243.359375" height="200"><defs><style type="text/css"></style></defs><path d="M1129.73913 4.452174H117.982609C53.426087 4.452174 1.113043 56.765217 1.113043 121.321739v778.017391c0 64.556522 52.313043 116.869565 116.869566 116.869566h1011.756521c64.556522 0 116.869565-52.313043 116.869566-116.869566V121.321739C1245.495652 56.765217 1193.182609 4.452174 1129.73913 4.452174z m18.92174 775.791304L904.904348 455.234783s-14.469565-25.6-64.556522-25.6c-56.765217 0-73.46087 25.6-73.460869 25.6L553.182609 783.582609s-12.243478 22.26087-40.069566 22.260869c-30.052174 0-44.521739-22.26087-44.521739-22.260869L355.06087 655.582609s-28.93913-37.843478-65.669566-37.843479-69.008696 42.295652-69.008695 42.295653l-122.434783 153.6V142.469565c0-21.147826 17.808696-38.956522 38.956522-38.956522h972.8c22.26087 0 38.956522 17.808696 38.956522 38.956522v637.773913zM564.313043 355.06087c0 75.686957-61.217391 138.017391-138.017391 138.017391S289.391304 430.747826 289.391304 355.06087s61.217391-138.017391 138.017392-138.017392 136.904348 62.330435 136.904347 138.017392z" fill="#B4B4B4" p-id="1726"></path></svg>