<?xml version="1.0" standalone="no"?><!DOCTYPE svg PUBLIC "-//W3C//DTD SVG 1.1//EN" "http://www.w3.org/Graphics/SVG/1.1/DTD/svg11.dtd"><svg t="1563961460591" class="icon" viewBox="0 0 1024 1024" version="1.1" xmlns="http://www.w3.org/2000/svg" p-id="1734" xmlns:xlink="http://www.w3.org/1999/xlink" width="200" height="200"><defs><style type="text/css"></style></defs><path d="M1022.553087 511.289322c0-32.159455-62.140861-57.800102-68.163729-88.180306-6.19159-31.320957 41.321577-78.742094 29.357646-107.557783-12.153104-29.306518-79.37608-29.168472-96.826035-55.233481-10.726635-16.0286-5.337754-45.391358-4.570835-70.909298-23.058687 23.334778-52.656634 59.037397-89.008578 113.861855-69.1914 104.357176-158.798175 261.053994-220.151667 372.932086-31.305619 57.089424-91.115048 86.038046-117.885621 91.43204-84.21278-327.223735-184.060475-298.351804-184.060475-298.351804 161.201186-169.621953 235.791694 74.590507 240.60283 70.98599 44.537522-58.735743 166.590068-239.079218 245.408854-301.961434 48.218732-38.463526 90.782716-61.036499 123.04954-74.268402-1.467371-5.62407-3.768127-10.547688-7.505577-14.285138-22.261092-22.245753-84.309923 3.461359-110.564105-14.116415-26.065008-17.434617-25.92185-84.672931-55.243706-96.826036-28.820803-11.953705-76.221488 35.53901-107.547558 29.342308-30.375091-6.002417-56.031076-68.158616-88.185418-68.158617-32.144117 0-57.789876 62.1562-88.185419 68.158617-31.310732 6.196703-78.696079-41.296013-107.521994-29.342308-29.306518 12.137766-29.173585 79.386305-55.233481 96.826036-26.23373 17.577775-88.303013-8.139563-110.569217 14.116415-22.261092 22.250866 3.466472 84.309923-14.121529 110.558992-17.429504 26.054783-84.667818 25.926963-96.81581 55.243707-11.958818 28.81569 35.554348 76.221488 29.357646 107.542445C62.16132 453.48922 0.00512 479.129867 0.00512 511.289322c0 32.14923 62.1562 57.794989 68.163729 88.180306 6.196703 31.315845-41.301125 78.711417-29.357646 107.516881 12.147991 29.296292 79.386305 29.178698 96.81581 55.253932 17.572663 26.243956-8.139563 88.2979 14.111303 110.543653 22.245753 22.266205 84.299697-3.435796 110.553879 14.131755 26.059896 17.444843 25.926963 84.678044 55.243707 96.831148 28.810577 11.953705 76.231713-35.53901 107.542445-29.34742 30.395542 6.012642 56.041302 68.163729 88.185418 68.163729 32.154342 0 57.810327-62.151087 88.185419-68.163729 31.305619-6.19159 78.701191 41.301125 107.527107 29.357645 29.280954-12.153104 29.188924-79.386305 55.23348-96.826035 26.264407-17.577775 88.303013 8.149789 110.564105-14.121529 22.266205-22.240641-3.456247-84.320149 14.131754-110.564104 17.444843-26.054783 84.672931-25.92185 96.826036-55.253932 11.953705-28.810577-35.528784-76.201037-29.337195-107.527107 6.007529-30.375091 68.158616-56.025963 68.158616-88.175193z" fill="#aea389" p-id="1735"></path></svg>