<?xml version="1.0" standalone="no"?><!DOCTYPE svg PUBLIC "-//W3C//DTD SVG 1.1//EN" "http://www.w3.org/Graphics/SVG/1.1/DTD/svg11.dtd"><svg t="1565431697942" class="icon" viewBox="0 0 1025 1024" version="1.1" xmlns="http://www.w3.org/2000/svg" p-id="4500" xmlns:xlink="http://www.w3.org/1999/xlink" width="200.1953125" height="200"><defs><style type="text/css"></style></defs><path d="M511.796019 0c-282.306277 0-511.795282 229.489004-511.795282 511.795282s229.489004 511.795282 511.795282 511.795282 511.795282-229.489004 511.795282-511.795282-229.693723-511.795282-511.795282-511.795282z m0 955.62415c-244.638145 0-443.828868-199.190724-443.828869-443.828868S266.953156 67.966413 511.796019 67.966413s443.828868 199.190724 443.828868 443.828869-199.190724 443.828868-443.828868 443.828868z" p-id="4501" fill="#FF5252"></path><path d="M775.882384 242.795682l-5.527389-13.511396-8.802879 11.464215-308.305477 400.838064-88.028789-176.057577-3.27549-6.550979-6.755697 2.251899-123.445022 41.148341-7.984007 2.661335 2.661336 7.984007 16.172731 48.518192 2.661335 7.984007 7.984006-2.661336 74.312675-24.770891 107.47701 214.954018 6.141543 12.078369 7.984006-10.85006 345.973611-457.544982 2.866054-3.684926-1.842464-4.503799z" p-id="4502" fill="#FF5252"></path></svg>