<?xml version="1.0" standalone="no"?><!DOCTYPE svg PUBLIC "-//W3C//DTD SVG 1.1//EN" "http://www.w3.org/Graphics/SVG/1.1/DTD/svg11.dtd"><svg t="1563961599516" class="icon" viewBox="0 0 1024 1024" version="1.1" xmlns="http://www.w3.org/2000/svg" p-id="6251" xmlns:xlink="http://www.w3.org/1999/xlink" width="200" height="200"><defs><style type="text/css"></style></defs><path d="M512 0C227.555556 0 0 227.555556 0 512s227.555556 512 512 512 512-227.555556 512-512-227.555556-512-512-512z m295.822222 460.8c-22.755556 39.822222-56.888889 62.577778-102.4 79.644444-11.377778 5.688889-22.755556 5.688889-28.444444 5.688889-22.755556 0-45.511111-17.066667-45.511111-45.511111 0-22.755556 17.066667-45.511111 45.511111-45.511111 22.755556-5.688889 45.511111-22.755556 51.2-39.822222 11.377778-11.377778 11.377778-22.755556 11.377778-34.133333 0-45.511111-39.822222-79.644444-91.022223-79.644445-17.066667 0-34.133333 5.688889-51.2 11.377778-28.444444 17.066667-39.822222 39.822222-39.822222 68.266667v267.377777c0 56.888889-34.133333 113.777778-85.333333 142.222223-28.444444 17.066667-62.577778 22.755556-96.711111 22.755555-102.4 0-182.044444-73.955556-182.044445-170.666667 0-28.444444 5.688889-56.888889 22.755556-85.333333 22.755556-39.822222 56.888889-62.577778 102.4-79.644444 11.377778-5.688889 22.755556-5.688889 28.444444-5.688889 34.133333 11.377778 51.2 28.444444 51.2 51.2 0 28.444444-17.066667 45.511111-39.822222 45.511111-22.755556 5.688889-45.511111 22.755556-56.888889 39.822222-5.688889 11.377778-11.377778 22.755556-11.377778 39.822222 0 45.511111 39.822222 79.644444 91.022223 79.644445 17.066667 0 34.133333-5.688889 51.2-11.377778 28.444444-17.066667 39.822222-39.822222 39.822222-68.266667V381.155556c0-56.888889 34.133333-113.777778 85.333333-142.222223 28.444444-17.066667 56.888889-22.755556 91.022222-22.755555 102.4 0 182.044444 73.955556 182.044445 170.666666 0 22.755556-5.688889 51.2-22.755556 73.955556z" p-id="6252" fill="#aea389"></path></svg>