<?xml version="1.0" standalone="no"?><!DOCTYPE svg PUBLIC "-//W3C//DTD SVG 1.1//EN" "http://www.w3.org/Graphics/SVG/1.1/DTD/svg11.dtd"><svg t="1565406651697" class="icon" viewBox="0 0 1024 1024" version="1.1" xmlns="http://www.w3.org/2000/svg" p-id="16307" xmlns:xlink="http://www.w3.org/1999/xlink" width="200" height="200"><defs><style type="text/css"></style></defs><path d="M512 0a512 512 0 1 0 512 512A512 512 0 0 0 512 0z m277.845333 450.901333a155.648 155.648 0 0 1-105.472 98.645334H682.666667a42.325333 42.325333 0 0 1-51.882667-21.504c-9.557333-20.48 0-34.133333 18.432-46.762667a127.317333 127.317333 0 0 1 22.186667-11.946667c34.133333-19.797333 62.464-45.397333 45.397333-85.333333a77.824 77.824 0 0 0-91.136-45.397333 72.704 72.704 0 0 0-70.997333 74.410666v212.309334a170.666667 170.666667 0 0 1-170.666667 147.797333 170.666667 170.666667 0 0 1-157.696-180.224c0-49.493333 45.738667-85.333333 106.496-115.712 25.6-7.850667 51.2-7.850667 64.853333 17.749333s-11.946667 44.373333-34.133333 54.613334c-45.056 19.456-68.266667 51.2-46.08 97.28a78.848 78.848 0 0 0 45.397333 40.96 79.872 79.872 0 0 0 61.44-3.413334 75.093333 75.093333 0 0 0 50.176-81.237333V409.6a148.48 148.48 0 0 1 107.52-150.186667 177.493333 177.493333 0 0 1 187.733334 47.786667 155.989333 155.989333 0 0 1 20.138666 143.701333z" p-id="16308" fill="#B0BEC5"></path></svg>