<?xml version="1.0" standalone="no"?><!DOCTYPE svg PUBLIC "-//W3C//DTD SVG 1.1//EN" "http://www.w3.org/Graphics/SVG/1.1/DTD/svg11.dtd"><svg t="1565406637714" class="icon" viewBox="0 0 1024 1024" version="1.1" xmlns="http://www.w3.org/2000/svg" p-id="15370" xmlns:xlink="http://www.w3.org/1999/xlink" width="200" height="200"><defs><style type="text/css"></style></defs><path d="M180.705882 0h662.588236a120.470588 120.470588 0 0 1 120.470588 120.470588v783.058824a120.470588 120.470588 0 0 1-120.470588 120.470588H180.705882a120.470588 120.470588 0 0 1-120.470588-120.470588V120.470588a120.470588 120.470588 0 0 1 120.470588-120.470588z m97.581177 331.294118c51.681882 0 93.485176-40.478118 93.485176-90.352942s-41.803294-90.352941-93.424941-90.352941-93.485176 40.478118-93.485176 90.352941 41.863529 90.352941 93.485176 90.352942z m-93.424941 120.470588v60.235294h498.507294v-60.235294H184.862118z m0 120.470588v60.235294h498.507294v-60.235294H184.862118z m0 120.470588v60.235294h311.536941v-60.235294H184.922353z" p-id="15371" fill="#B0BEC5"></path></svg>