<?xml version="1.0" standalone="no"?><!DOCTYPE svg PUBLIC "-//W3C//DTD SVG 1.1//EN" "http://www.w3.org/Graphics/SVG/1.1/DTD/svg11.dtd"><svg t="1565444050685" class="icon" viewBox="0 0 1024 1024" version="1.1" xmlns="http://www.w3.org/2000/svg" p-id="8213" xmlns:xlink="http://www.w3.org/1999/xlink" width="200" height="200"><defs><style type="text/css"></style></defs><path d="M921.6 771.584c0 82.8416-68.096 150.016-152.1152 150.016H254.464C170.5472 921.6 102.4 854.4256 102.4 771.584V252.416C102.4 169.5744 170.496 102.4 254.5152 102.4H769.536C853.4528 102.4 921.6 169.5744 921.6 252.416v519.168z m-70.1952 0V252.416a81.408 81.408 0 0 0-81.92-80.7936H254.464c-45.2096 0-81.92 36.1984-81.92 80.7936v519.168c0 44.5952 36.7104 80.7936 81.92 80.7936H769.536c45.2096 0 81.92-36.1984 81.92-80.7936zM757.76 344.6784v92.3136c0 44.5952-36.6592 80.7936-81.92 80.7936h-93.6448c-45.2096 0-81.92-36.1984-81.92-80.7936V344.6784c0-44.544 36.7104-80.7424 81.92-80.7424H675.84c45.2608 0 81.92 36.1472 81.92 80.7424z m-70.1952 0a11.6224 11.6224 0 0 0-11.7248-11.52h-93.6448c-6.4512 0-11.6736 5.12-11.6736 11.52v92.3136c0 6.4 5.2224 11.5712 11.6736 11.5712H675.84c6.4512 0 11.7248-5.1712 11.7248-11.5712V344.6784z m-386.2016 34.6112a34.816 34.816 0 0 1-35.1232-34.6112 34.816 34.816 0 0 1 35.1232-34.6112h93.5936a34.816 34.816 0 0 1 35.1232 34.6112 34.816 34.816 0 0 1-35.1232 34.6112H301.3632z m0 161.536a34.816 34.816 0 0 1-35.1232-34.6112 34.816 34.816 0 0 1 35.1232-34.6112h93.5936a34.816 34.816 0 0 1 35.1232 34.6112 34.816 34.816 0 0 1-35.1232 34.6112H301.3632z m0 184.6272a34.816 34.816 0 0 1-35.1232-34.6112 34.816 34.816 0 0 1 35.1232-34.6112H675.84a34.816 34.816 0 0 1 35.1232 34.6112 34.816 34.816 0 0 1-35.1232 34.6112H301.3632z" fill="#FF5252" p-id="8214"></path></svg>