<?xml version="1.0" standalone="no"?><!DOCTYPE svg PUBLIC "-//W3C//DTD SVG 1.1//EN" "http://www.w3.org/Graphics/SVG/1.1/DTD/svg11.dtd"><svg t="1563961567639" class="icon" viewBox="0 0 1024 1024" version="1.1" xmlns="http://www.w3.org/2000/svg" p-id="4572" xmlns:xlink="http://www.w3.org/1999/xlink" width="200" height="200"><defs><style type="text/css"></style></defs><path d="M853 62H171c-16.3 0-29.5 13.3-29.5 29.5v841c0 16.3 13.3 29.5 29.5 29.5h682c16.3 0 29.5-13.2 29.6-29.5v-841C882.5 75.2 869.3 62 853 62zM291.8 166.9c29.3 0 53 23.7 53 53s-23.7 53-53 53-53-23.7-53-53 23.7-53 53-53z m176.4 464.3H261.7c-15.7 0-28.4-12.7-28.4-28.4s12.7-28.4 28.4-28.4h206.5c15.7 0 28.4 12.7 28.4 28.4 0.1 15.6-12.6 28.4-28.4 28.4zM233.3 483.6c0-15.7 12.7-28.4 28.4-28.4H383c15.7 0 28.4 12.7 28.4 28.4S398.7 512 383 512H261.7c-15.7 0-28.4-12.7-28.4-28.4zM574.2 403H261.7c-15.7 0-28.4-12.7-28.4-28.4s12.7-28.4 28.4-28.4h312.5c15.7 0 28.4 12.7 28.4 28.4 0.1 15.7-12.6 28.4-28.4 28.4z" p-id="4573" fill="#aea389"></path></svg>