<?xml version="1.0" standalone="no"?><!DOCTYPE svg PUBLIC "-//W3C//DTD SVG 1.1//EN" "http://www.w3.org/Graphics/SVG/1.1/DTD/svg11.dtd"><svg t="1565440667050" class="icon" viewBox="0 0 1024 1024" version="1.1" xmlns="http://www.w3.org/2000/svg" p-id="15609" xmlns:xlink="http://www.w3.org/1999/xlink" width="200" height="200"><defs><style type="text/css"></style></defs><path d="M64.97278 294.146297l895.392924 0 0 40.932248-895.392924 0 0-40.932248Z" p-id="15610" fill="#FF5252"></path><path d="M265.569448 333.23864 236.890268 304.033481 499.66302 45.991474 790.002618 293.64897 763.438613 324.791248 501.608326 101.450577Z" p-id="15611" fill="#FF5252"></path><path d="M356.089068 383.495254l136.50086 0 0 40.932248-136.50086 0 0-40.932248Z" p-id="15612" fill="#FF5252"></path><path d="M402.919652 403.961378l40.932248 0 0 465.757816-40.932248 0 0-465.757816Z" p-id="15613" fill="#FF5252"></path><path d="M360.088148 885.783055 488.589824 885.783055 360.088148 885.783055Z" p-id="15614" fill="#FF5252"></path><path d="M355.101577 844.218404l136.50086 0 0 40.932248-136.50086 0 0-40.932248Z" p-id="15615" fill="#FF5252"></path><path d="M139.269927 382.488321l136.499837 0 0 40.932248-136.499837 0 0-40.932248Z" p-id="15616" fill="#FF5252"></path><path d="M185.077206 399.942855l40.932248 0 0 465.753723-40.932248 0 0-465.753723Z" p-id="15617" fill="#FF5252"></path><path d="M143.269008 881.765555 271.770683 881.765555 143.269008 881.765555Z" p-id="15618" fill="#FF5252"></path><path d="M139.269927 845.230454l136.499837 0 0 40.932248-136.499837 0 0-40.932248Z" p-id="15619" fill="#FF5252"></path><path d="M60.972677 927.525762l895.392924 0 0 40.932248-895.392924 0 0-40.932248Z" p-id="15620" fill="#FF5252"></path><path d="M769.661338 383.495254l136.499837 0 0 40.932248-136.499837 0 0-40.932248Z" p-id="15621" fill="#FF5252"></path><path d="M815.467593 403.961378l40.932248 0 0 465.757816-40.932248 0 0-465.757816Z" p-id="15622" fill="#FF5252"></path><path d="M773.660418 885.783055 902.162094 885.783055 773.660418 885.783055Z" p-id="15623" fill="#FF5252"></path><path d="M764.649184 844.218404l136.50086 0 0 40.932248-136.50086 0 0-40.932248Z" p-id="15624" fill="#FF5252"></path><path d="M560.863894 383.495254l136.50086 0 0 40.932248-136.50086 0 0-40.932248Z" p-id="15625" fill="#FF5252"></path><path d="M608.716762 403.961378l40.932248 0 0 465.757816-40.932248 0 0-465.757816Z" p-id="15626" fill="#FF5252"></path><path d="M564.862975 885.783055 693.364651 885.783055 564.862975 885.783055Z" p-id="15627" fill="#FF5252"></path><path d="M561.874921 845.230454l136.50086 0 0 40.932248-136.50086 0 0-40.932248Z" p-id="15628" fill="#FF5252"></path></svg>