<?xml version="1.0" standalone="no"?><!DOCTYPE svg PUBLIC "-//W3C//DTD SVG 1.1//EN" "http://www.w3.org/Graphics/SVG/1.1/DTD/svg11.dtd"><svg t="1563710330862" class="icon" viewBox="0 0 1024 1024" version="1.1" xmlns="http://www.w3.org/2000/svg" p-id="7976" xmlns:xlink="http://www.w3.org/1999/xlink" width="200" height="200"><defs><style type="text/css"></style></defs><path d="M528.649441 0.945149C420.744891 8.348819 313.470441 49.62034 233.290272 114.04802 135.93989 192.337891 71.19716 297.800805 48.592338 415.078086c-8.821394 45.682218-11.656842 108.534649-6.931095 148.624733 13.704665 114.99317 58.599259 212.658602 135.865218 295.04412a525.818083 525.818083 0 0 0 278.425243 154.531917c64.42768 12.995803 128.619073 14.17724 192.022841 3.54431a526.36942 526.36942 0 0 0 286.301488-146.498148c21.26586-21.423385 42.925533-46.469843 41.586571-48.438904-0.31505-0.708862-93.648547-70.492388-207.066468-155.162016A30000.772856 30000.772856 0 0 1 562.43853 511.955893c0-0.472575 94.829984-67.420653 210.768303-148.939784A16317.767085 16317.767085 0 0 0 984.526473 213.446226c0.787624-2.677923-29.929729-39.381223-50.25044-59.623171A523.061398 523.061398 0 0 0 647.974545 7.324907 553.384939 553.384939 0 0 0 528.649441 1.023912zM649.786082 142.638788c13.232091 3.938122 23.077396 10.081593 32.371365 20.163186a69.704764 69.704764 0 0 1-21.817198 110.897523c-10.711693 5.198321-13.074566 5.513371-31.347453 5.513371-17.485263 0-20.714523-0.472575-29.929729-4.804509a73.957936 73.957936 0 0 1-34.104139-33.710327c-5.355846-11.026742-5.749658-12.917041-5.749658-30.717353 0-16.933926 0.551337-20.005661 4.804509-28.827055a72.1464 72.1464 0 0 1 85.772303-38.593598z" p-id="7977" data-spm-anchor-id="a313x.7781069.0.i17" class="selected" fill="#2be4ad"></path></svg>