<?xml version="1.0" standalone="no"?><!DOCTYPE svg PUBLIC "-//W3C//DTD SVG 1.1//EN" "http://www.w3.org/Graphics/SVG/1.1/DTD/svg11.dtd"><svg t="1563961503963" class="icon" viewBox="0 0 1024 1024" version="1.1" xmlns="http://www.w3.org/2000/svg" p-id="2528" xmlns:xlink="http://www.w3.org/1999/xlink" width="200" height="200"><defs><style type="text/css"></style></defs><path d="M785.9968 626.8416c-54.94784 0-103.73632 26.40384-134.38464 67.22048L387.59424 561.5104a168.28416 168.28416 0 0 0 6.40512-46.13632c0-17.52576-2.68288-34.42176-7.6544-50.30912l263.01952-132.05504c30.48448 42.55232 80.31744 70.28224 136.63232 70.28224 92.78464 0 167.99744-75.264 167.99744-168.1152 0-92.84608-75.21792-168.1152-167.99744-168.1152-92.78464 0-167.99744 75.26912-167.99744 168.1152 0 6.4256 0.37376 12.75904 1.0752 18.9952L341.66272 393.45664c-30.12096-28.62592-70.84544-46.19776-115.66592-46.19776-92.78464 0-167.99744 75.264-167.99744 168.1152s75.2128 168.1152 167.99744 168.1152c46.45376 0 88.4992-18.8672 118.912-49.36192l274.64704 137.88672c-1.024 7.5008-1.56672 15.1552-1.56672 22.94272 0 92.84608 75.2128 168.1152 167.99744 168.1152s167.99744-75.264 167.99744-168.1152c0.01024-92.8512-75.19744-168.1152-167.9872-168.1152z" fill="#aea389" p-id="2529"></path></svg>