<?xml version="1.0" standalone="no"?><!DOCTYPE svg PUBLIC "-//W3C//DTD SVG 1.1//EN" "http://www.w3.org/Graphics/SVG/1.1/DTD/svg11.dtd"><svg t="1563961585533" class="icon" viewBox="0 0 1024 1024" version="1.1" xmlns="http://www.w3.org/2000/svg" p-id="5407" xmlns:xlink="http://www.w3.org/1999/xlink" width="200" height="200"><defs><style type="text/css"></style></defs><path d="M512 1024C229.235663 1024 0 794.770506 0 512 0 229.235663 229.235663 0 512 0c282.770506 0 512 229.235663 512 512C1024 794.770506 794.770506 1024 512 1024M460.801542 819.198458l102.396916 0 0-102.396916-102.396916 0L460.801542 819.198458zM712.409446 364.264867C701.349012 266.434313 634.40347 212.402892 512 204.801542c-144.729446-5.059855-176.174265 63.450988-204.801542 184.036241l95.910554 20.765301c19.849253-81.061012 30.951325-104.898313 108.890988-102.404627 66.783614 5.109205 87.95759 11.108241 94.571952 65.867566 4.398265 37.192482-8.548241 77.614265-87.729349 123.578602-73.721831 43.692723-58.04106 77.854843-55.675373 135.164916l0 33.795084 91.806843 0 0-27.652627c-2.373398-43.006458-7.451759-62.005976 58.084241-96.487325C716.801542 486.295133 716.801542 424.933783 712.409446 364.264867" p-id="5408" fill="#aea389"></path></svg>