<?xml version="1.0" standalone="no"?><!DOCTYPE svg PUBLIC "-//W3C//DTD SVG 1.1//EN" "http://www.w3.org/Graphics/SVG/1.1/DTD/svg11.dtd"><svg t="1563778594430" class="icon" viewBox="0 0 1024 1024" version="1.1" xmlns="http://www.w3.org/2000/svg" p-id="3997" xmlns:xlink="http://www.w3.org/1999/xlink" width="200" height="200"><defs><style type="text/css"></style></defs><path d="M872.399 151.781C776.138 55.578 648.142 2.597 512 2.597S247.859 55.579 151.606 151.782C55.347 247.98 2.275 375.903 2.275 511.963c0 136.004 53.008 263.991 149.331 360.195 96.321 96.195 224.252 149.243 360.394 149.243s264.137-52.972 360.461-149.243c96.191-96.204 149.264-224.19 149.264-360.195 0-136.061-53.067-263.984-149.326-360.182M829.15 829.003L629.394 629.3c-21.398 21.317-47.187 35.662-74.404 42.899l73.178 272.975c-37.428 9.942-76.41 15.117-116.169 15.117-39.755 0-78.733-5.174-116.162-15.117l73.175-272.975c-27.214-7.237-53.008-21.582-74.337-42.899l-199.82 199.703c-57.788-57.628-96.453-127.346-116.103-201.061l272.867-73.009c-7.5-28.165-7.5-57.821 0-85.863L78.752 396.001c19.65-73.714 58.316-143.364 116.037-201.061l199.822 199.699c21.397-21.317 47.19-35.658 74.405-42.896L395.841 78.769c37.428-9.946 76.407-15.116 116.162-15.116 39.759 0 78.738 5.171 116.169 15.116l-73.178 272.974c27.217 7.298 53.006 21.58 74.404 42.963l199.748-199.709c56.697 56.598 96.202 125.604 116.364 200.939l-273.19 73.132c7.5 28.111 7.5 57.766 0 85.863l273.19 73.138c-20.1 75.335-59.671 144.337-116.361 200.933M538.955 374.163L512 242.746l-24.954 131.026c-27.212 4.91-53.332 17.83-74.337 38.896-54.886 54.848-54.886 143.754 0 198.605 54.882 54.79 143.837 54.79 198.717 0 54.881-54.851 54.881-143.757 0-198.605-20.624-20.487-45.963-33.342-72.47-38.506m-0.001 0.001z" fill="#ea650b" p-id="3998"></path></svg>